<svg  	 viewBox="0 0 512 512" style="enable-background:new 0 0 512 512;" xml:space="preserve"> <g> <g> <path d="M469.333,235.755V85.333C469.333,38.272,431.061,0,384,0c-40.491,0-74.325,28.416-83.029,66.304 c-37.888,8.704-66.304,42.539-66.304,83.029c0,11.776,9.536,21.333,21.333,21.333h128c11.797,0,21.333-9.557,21.333-21.333 c0-38.293-25.515-70.4-60.331-81.173c6.635-14.976,21.589-25.493,38.997-25.493c23.531,0,42.667,19.136,42.667,42.667v149.333 H252.672c-9.067-31.744-37.419-55.424-71.701-56.832c-14.699-17.835-36.693-28.501-60.075-28.501 c-38.677,0-71.872,28.971-77.227,67.413c-0.128,0.811-0.192,1.643-0.213,2.475l-0.363,16.491C18.581,240.491,0,262.101,0,288 c0,26.837,19.968,48.875,45.803,52.565l12.544,75.285c3.989,24,20.885,42.773,42.901,50.069l-9.664,9.664 c-8.341,8.341-8.341,21.824,0,30.165c4.16,4.16,9.621,6.251,15.083,6.251c5.461,0,10.923-2.091,15.083-6.251l36.416-36.416 h195.669l36.416,36.416c4.16,4.16,9.621,6.251,15.083,6.251c5.461,0,10.923-2.091,15.083-6.251c8.341-8.341,8.341-21.824,0-30.165 l-9.664-9.664c22.016-7.296,38.912-26.069,42.901-50.069l12.544-75.285C492.032,336.875,512,314.837,512,288 C512,262.251,493.653,240.704,469.333,235.755z M458.667,298.667H448H64H53.333c-5.867,0-10.667-4.779-10.667-10.667 s4.8-10.667,10.667-10.667H64h170.667h224c5.867,0,10.667,4.779,10.667,10.667S464.533,298.667,458.667,298.667z"/> </g> </g> <g> </g> <g> </g> <g> </g> <g> </g> <g> </g> <g> </g> <g> </g> <g> </g> <g> </g> <g> </g> <g> </g> <g> </g> <g> </g> <g> </g> <g> </g> </svg>